<svg width="326" height="64" viewBox="0 0 326 64" fill="none" xmlns="http://www.w3.org/2000/svg">
<g clip-path="url(#mask)">
<path fill-rule="evenodd" clip-rule="evenodd" d="M0 3.8209C0 3.68901 0.00668232 3.55868 0.0197269 3.43024C0.215395 1.50353 1.84256 0 3.8209 0H82.1493C84.2595 0 85.9702 1.71067 85.9702 3.8209V60.1791C85.9702 62.2893 84.2595 64 82.1493 64H3.8209C1.71067 64 0 62.2893 0 60.1791V3.8209ZM82.6269 15.7612V60.1791C82.6269 60.4429 82.413 60.6567 82.1493 60.6567H3.8209C3.55712 60.6567 3.34328 60.4429 3.34328 60.1791V15.7612H82.6269ZM23.1159 29.3498C23.7882 29.9826 23.8202 31.0405 23.1875 31.7128L16.624 38.6865L23.1875 45.6603C23.8202 46.3326 23.7882 47.3905 23.1159 48.0232C22.4436 48.656 21.3857 48.6239 20.7529 47.9516L13.1111 39.8322C12.5053 39.1886 12.5053 38.1845 13.1111 37.5409L20.7529 29.4215C21.3857 28.7492 22.4436 28.7171 23.1159 29.3498ZM62.7825 31.7128C62.1497 31.0405 62.1818 29.9826 62.8541 29.3498C63.5264 28.7171 64.5843 28.7492 65.217 29.4215L72.8588 37.5409C73.4646 38.1845 73.4646 39.1886 72.8588 39.8322L65.217 47.9516C64.5843 48.6239 63.5264 48.656 62.8541 48.0232C62.1818 47.3905 62.1497 46.3326 62.7825 45.6603L69.346 38.6865L62.7825 31.7128ZM44.1772 33.2219V30.3667H55.8787V33.2219H51.6662V46.2807H48.4366V33.2219H44.1772ZM37.5924 30.3667H31.3438V46.2807H37.686C39.3242 46.2807 40.5957 45.9063 41.5006 45.1574C42.4056 44.4085 42.858 43.2618 42.858 41.7172C42.858 40.7186 42.6865 39.9385 42.3431 39.3769C42.0155 38.8152 41.5007 38.3861 40.7986 38.0897C41.4383 37.684 41.8908 37.2238 42.156 36.7089C42.4212 36.1784 42.5538 35.4686 42.5538 34.5792C42.5538 33.0971 42.1404 32.0283 41.3135 31.373C40.4866 30.7021 39.2462 30.3667 37.5924 30.3667ZM34.5733 39.6343H37.5221C38.8951 39.6343 39.5816 40.274 39.5816 41.5533C39.5816 42.3022 39.4101 42.8171 39.0667 43.0979C38.7392 43.3788 38.2243 43.5192 37.5221 43.5192H34.5733V39.6343ZM34.5733 33.1283H37.4286C38.6611 33.1283 39.2774 33.7601 39.2774 35.0239C39.2774 36.2877 38.669 36.9195 37.452 36.9195H34.5733V33.1283ZM244.774 20.2403V13.8003H250.878V20.2403H244.774ZM244.774 25.0005V53.0005H250.878V25.0005H244.774ZM264.386 53.0003H258.282V25.0003H264.33V26.7363C266.98 25.1683 269.407 24.3843 271.61 24.3843C274.858 24.3843 277.228 25.2989 278.722 27.1283C282.119 25.2989 285.498 24.3843 288.858 24.3843C292.218 24.3843 294.588 25.4296 295.97 27.5203C297.351 29.5736 298.042 33.0643 298.042 37.9923V53.0003H291.994V38.1603C291.994 35.1363 291.676 32.9896 291.042 31.7203C290.444 30.4509 289.175 29.8163 287.234 29.8163C285.554 29.8163 283.743 30.1896 281.802 30.9363L280.85 31.3283C281.148 32.0749 281.298 34.4643 281.298 38.4963V53.0003H275.25V38.6083C275.25 35.2856 274.951 32.9896 274.354 31.7203C273.756 30.4509 272.45 29.8163 270.434 29.8163C268.567 29.8163 266.831 30.1896 265.226 30.9363L264.386 31.2723V53.0003ZM324.636 30.7679C320.231 30.1706 317.039 29.8719 315.06 29.8719C313.081 29.8719 311.7 30.1146 310.916 30.5999C310.169 31.0479 309.796 31.7759 309.796 32.7839C309.796 33.7919 310.207 34.5013 311.028 34.9119C311.887 35.3226 313.865 35.8079 316.964 36.3679C320.1 36.8906 322.321 37.7306 323.628 38.8879C324.935 40.0453 325.588 42.0986 325.588 45.0479C325.588 47.9973 324.636 50.1626 322.732 51.5439C320.865 52.9253 318.121 53.6159 314.5 53.6159C312.223 53.6159 309.348 53.2986 305.876 52.6639L304.14 52.3839L304.364 47.2879C308.844 47.8853 312.073 48.1839 314.052 48.1839C316.031 48.1839 317.431 47.9413 318.252 47.4559C319.111 46.9706 319.54 46.1679 319.54 45.0479C319.54 43.9279 319.129 43.1626 318.308 42.7519C317.524 42.3039 315.601 41.8373 312.54 41.3519C309.516 40.8293 307.295 40.0266 305.876 38.9439C304.457 37.8613 303.748 35.8826 303.748 33.0079C303.748 30.1333 304.719 27.9866 306.66 26.5679C308.639 25.1493 311.159 24.4399 314.22 24.4399C316.609 24.4399 319.54 24.7386 323.012 25.3359L324.748 25.6719L324.636 30.7679ZM212.33 20.1841V14.6401H240.33V20.1841H229.522V53.0001H223.25V20.1841H212.33ZM172.422 53.0003H178.526V31.2723L179.366 30.9363C181.121 30.1896 182.95 29.8163 184.854 29.8163C186.87 29.8163 188.196 30.4509 188.83 31.7203C189.502 32.9896 189.838 35.1363 189.838 38.1603V53.0003H195.886V37.9923C195.886 33.1389 195.196 29.6669 193.814 27.5763C192.47 25.4483 189.932 24.3843 186.198 24.3843C183.772 24.3843 181.196 25.1683 178.47 26.7363V25.0003H172.422V53.0003ZM163.921 47.9603L165.489 47.7923L165.601 52.3283C161.345 53.1869 157.574 53.6163 154.289 53.6163C150.145 53.6163 147.158 52.4776 145.329 50.2003C143.537 47.9229 142.641 44.2829 142.641 39.2803C142.641 29.3496 146.692 24.3843 154.793 24.3843C162.633 24.3843 166.553 28.6589 166.553 37.2083L166.161 41.5763H148.801C148.838 43.8909 149.342 45.5896 150.313 46.6723C151.284 47.7549 153.094 48.2963 155.745 48.2963C158.396 48.2963 161.121 48.1843 163.921 47.9603ZM160.561 36.8723C160.561 34.1096 160.113 32.1869 159.217 31.1043C158.358 29.9843 156.884 29.4243 154.793 29.4243C152.702 29.4243 151.172 30.0029 150.201 31.1603C149.268 32.3176 148.782 34.2216 148.745 36.8723H160.561ZM124.984 14.6401H110.424V53.0001H125.432C133.57 53.0001 137.64 49.3788 137.64 42.1361C137.64 37.6188 135.811 34.6508 132.152 33.2321C133.72 32.3735 134.858 31.2908 135.568 29.9841C136.314 28.6775 136.688 26.8855 136.688 24.6081C136.688 21.1361 135.717 18.6161 133.776 17.0481C131.835 15.4428 128.904 14.6401 124.984 14.6401ZM116.64 36.2561H124.984C126.776 36.2561 128.269 36.6855 129.464 37.5441C130.658 38.3655 131.256 39.8215 131.256 41.9121C131.256 44.0028 130.733 45.4775 129.688 46.3361C128.68 47.1948 127.149 47.6241 125.096 47.6241H116.64V36.2561ZM116.64 20.0161H124.648C128.456 20.0161 130.36 21.7895 130.36 25.3361C130.36 29.1068 128.531 30.9921 124.872 30.9921H116.64V20.0161Z" fill="#708090"/>
</g>
<defs>
<clipPath id="mask">
<rect width="326" height="64" fill="white"/>
</clipPath>
</defs>
</svg>
