<svg width="32" height="32" viewBox="0 0 32 32" fill="none" xmlns="http://www.w3.org/2000/svg">
<path d="M15.9267 18.2389C17.17 18.2389 18.178 17.2309 18.178 15.9876C18.178 14.7443 17.17 13.7363 15.9267 13.7363C14.6834 13.7363 13.6754 14.7443 13.6754 15.9876C13.6754 17.2309 14.6834 18.2389 15.9267 18.2389Z" fill="black"/>
<path fill-rule="evenodd" clip-rule="evenodd" d="M20.8406 27.0014C19.4363 27.0014 17.6942 25.985 15.9267 24.2664C14.1601 25.9605 12.417 26.977 11.0128 26.929C10.5535 26.929 10.1177 26.833 9.75446 26.6146C8.51963 25.9125 8.06034 24.0725 8.47163 21.4824C8.5441 21.0222 8.64104 20.5619 8.76245 20.0781C8.27869 19.9567 7.84293 19.8118 7.40716 19.6424C4.96198 18.7229 3.60669 17.4156 3.60669 15.9633C3.60669 14.5356 4.96198 13.2283 7.40716 12.2843C7.43013 12.2766 7.4531 12.269 7.47607 12.2613C7.88899 12.124 8.30419 11.9858 8.76245 11.8485C8.64104 11.3638 8.5441 10.9045 8.47163 10.4443C8.03587 7.85415 8.4961 6.03862 9.75446 5.31203C10.1168 5.09462 10.5526 4.99768 11.0128 4.99768C12.4161 4.99768 14.1592 6.01415 15.9022 7.73274C17.6688 6.01415 19.4363 4.99768 20.8161 4.99768C21.2754 4.99768 21.7112 5.09462 22.0745 5.31203C23.3337 6.03862 23.793 7.87862 23.3817 10.5167C23.3093 10.977 23.2123 11.4372 23.0909 11.921C23.5747 12.0424 24.0105 12.1873 24.4462 12.3567C26.8914 13.2763 28.2467 14.5836 28.2467 16.0358C28.2467 17.4636 26.8914 18.7709 24.4462 19.7149L24.3773 19.7378C23.9644 19.8752 23.5492 20.0133 23.0909 20.1506C23.2123 20.6353 23.3093 21.0946 23.3817 21.5549C23.8175 24.145 23.3573 25.9605 22.0989 26.6871C21.7366 26.9045 21.3008 27.0014 20.8406 27.0014ZM15.9257 21.0231C15.4664 21.0231 15.0062 21.0231 14.5705 20.9986C15.0062 21.5793 15.4655 22.112 15.9257 22.6203C16.385 22.112 16.8453 21.5793 17.281 20.9986C16.8453 21.0231 16.3849 21.0231 15.9257 21.0231ZM11.6891 18.7105C11.6495 18.6428 11.6096 18.5744 11.569 18.5054V18.5045C11.3272 18.1177 11.1097 17.7054 10.9159 17.3186C10.626 17.9963 10.3841 18.6749 10.1657 19.328C10.8434 19.473 11.5455 19.5944 12.2956 19.6913C12.074 19.3694 11.8855 19.0468 11.6891 18.7105ZM12.2947 12.3078C11.5446 12.4047 10.8425 12.5261 10.1648 12.6711C10.3577 13.3252 10.6006 14.0019 10.9149 14.704C11.1079 14.2927 11.3253 13.905 11.5681 13.4937C11.8014 13.0986 12.0338 12.726 12.2662 12.3535L12.2947 12.3078ZM12.5375 14.0273C12.1497 14.6805 11.8109 15.3346 11.4966 15.9878C11.8109 16.641 12.1497 17.2942 12.5375 17.9483C12.9008 18.5779 13.2876 19.2066 13.7234 19.8363C14.4255 19.8843 15.1521 19.9087 15.9267 19.9087C16.6777 19.9087 17.4034 19.8843 18.13 19.8363L18.1453 19.8128C18.5515 19.191 18.9571 18.5701 19.3159 17.9483C19.7036 17.2951 20.0425 16.641 20.3568 15.9878C20.0425 15.3346 19.7036 14.6805 19.3159 14.0273C18.9526 13.3977 18.5657 12.769 18.13 12.1393C17.4279 12.0913 16.7013 12.0669 15.9267 12.0669C15.1756 12.0669 14.45 12.0913 13.7234 12.1393L13.708 12.1629C13.3018 12.7847 12.8963 13.4055 12.5375 14.0273ZM20.3088 13.4702L20.962 14.6805C21.2519 14.0019 21.4947 13.3252 21.7121 12.6476C21.0345 12.5026 20.3323 12.3812 19.5822 12.2843C19.8039 12.6062 19.9923 12.9288 20.1887 13.265C20.2283 13.3328 20.2682 13.4012 20.3088 13.4702ZM21.7121 19.3045C21.4947 18.6504 21.2528 17.9727 20.962 17.2951V17.296C20.7446 17.7073 20.5272 18.1186 20.3088 18.4819C20.0755 18.877 19.8431 19.2496 19.6107 19.6221L19.5822 19.6678C20.3323 19.5709 21.0345 19.4494 21.7121 19.3045ZM20.8161 25.8645C21.0825 25.8645 21.3243 25.8165 21.5182 25.6951C22.3408 25.2349 22.6081 23.7581 22.2693 21.7007C22.1968 21.265 22.1243 20.8292 22.0029 20.3934C20.9855 20.6353 19.8966 20.8047 18.7587 20.9017C18.081 21.8457 17.4034 22.6937 16.7013 23.4438C18.1535 24.896 19.6302 25.8645 20.8161 25.8645ZM27.1107 15.9878C27.1107 14.8979 25.489 13.712 22.7775 12.9374C22.4876 13.9304 22.0763 14.9469 21.5926 15.9878C22.0763 17.0287 22.4641 18.0452 22.7785 19.0382C23.2142 18.9177 23.649 18.7718 24.0368 18.6269C25.9973 17.8758 27.1107 16.9318 27.1107 15.9878ZM21.5427 6.2805C21.3243 6.15909 21.1069 6.11109 20.8406 6.11109C19.6547 6.11109 18.177 7.10309 16.7248 8.5318C17.4269 9.28286 18.129 10.1299 18.7822 11.0739C19.9201 11.1944 21.01 11.3638 22.0265 11.5822C22.0471 11.4841 22.0678 11.3872 22.0882 11.2913C22.1636 10.9374 22.2358 10.5985 22.2928 10.2749C22.6316 8.19297 22.3417 6.74074 21.5427 6.2805ZM15.9267 10.9525C16.386 10.9525 16.8462 10.9525 17.282 10.977C16.8462 10.4207 16.3869 9.86356 15.9267 9.35533C15.4674 9.86356 15.0072 10.3963 14.5714 10.977C15.0072 10.9525 15.4674 10.9525 15.9267 10.9525ZM11.0363 6.11109C10.77 6.11109 10.5281 6.15909 10.3342 6.2805C9.51163 6.76521 9.24434 8.21744 9.58316 10.2749C9.65563 10.7106 9.7281 11.1464 9.84951 11.5822C10.8669 11.3403 11.9559 11.1709 13.0937 11.0739C13.7714 10.129 14.449 9.28192 15.1512 8.5318C13.6989 7.07956 12.2222 6.11109 11.0363 6.11109ZM9.07526 19.038C6.36409 18.2634 4.74269 17.0776 4.74269 15.9878C4.74269 15.0438 5.8561 14.0998 7.81657 13.3497C8.20434 13.2047 8.63916 13.0589 9.07493 12.9384C9.38928 13.9313 9.77704 14.9478 10.2608 15.9887C9.77723 17.0293 9.36512 18.0698 9.07526 19.038ZM9.78874 20.6842C9.71332 21.0382 9.64113 21.3771 9.5841 21.7007H9.58504C9.24622 23.7581 9.51163 25.2349 10.3352 25.6951C10.5535 25.8165 10.7709 25.8645 11.0373 25.8645C12.2232 25.8645 13.6999 24.8716 15.1521 23.4438C14.45 22.6927 13.7479 21.8457 13.0947 20.9017C11.9568 20.7812 10.8669 20.6118 9.85045 20.3934C9.8298 20.4915 9.80915 20.5884 9.78874 20.6842Z" fill="black"/>
<path d="M15.9267 18.2389C17.17 18.2389 18.178 17.2309 18.178 15.9876C18.178 14.7443 17.17 13.7363 15.9267 13.7363C14.6834 13.7363 13.6754 14.7443 13.6754 15.9876C13.6754 17.2309 14.6834 18.2389 15.9267 18.2389Z" stroke="black"/>
<path fill-rule="evenodd" clip-rule="evenodd" d="M20.8406 27.0014C19.4363 27.0014 17.6942 25.985 15.9267 24.2664C14.1601 25.9605 12.417 26.977 11.0128 26.929C10.5535 26.929 10.1177 26.833 9.75446 26.6146C8.51963 25.9125 8.06034 24.0725 8.47163 21.4824C8.5441 21.0222 8.64104 20.5619 8.76245 20.0781C8.27869 19.9567 7.84293 19.8118 7.40716 19.6424C4.96198 18.7229 3.60669 17.4156 3.60669 15.9633C3.60669 14.5356 4.96198 13.2283 7.40716 12.2843C7.43013 12.2766 7.4531 12.269 7.47607 12.2613C7.88899 12.124 8.30419 11.9858 8.76245 11.8485C8.64104 11.3638 8.5441 10.9045 8.47163 10.4443C8.03587 7.85415 8.4961 6.03862 9.75446 5.31203C10.1168 5.09462 10.5526 4.99768 11.0128 4.99768C12.4161 4.99768 14.1592 6.01415 15.9022 7.73274C17.6688 6.01415 19.4363 4.99768 20.8161 4.99768C21.2754 4.99768 21.7112 5.09462 22.0745 5.31203C23.3337 6.03862 23.793 7.87862 23.3817 10.5167C23.3093 10.977 23.2123 11.4372 23.0909 11.921C23.5747 12.0424 24.0105 12.1873 24.4462 12.3567C26.8914 13.2763 28.2467 14.5836 28.2467 16.0358C28.2467 17.4636 26.8914 18.7709 24.4462 19.7149L24.3773 19.7378C23.9644 19.8752 23.5492 20.0133 23.0909 20.1506C23.2123 20.6353 23.3093 21.0946 23.3817 21.5549C23.8175 24.145 23.3573 25.9605 22.0989 26.6871C21.7366 26.9045 21.3008 27.0014 20.8406 27.0014ZM15.9257 21.0231C15.4664 21.0231 15.0062 21.0231 14.5705 20.9986C15.0062 21.5793 15.4655 22.112 15.9257 22.6203C16.385 22.112 16.8453 21.5793 17.281 20.9986C16.8453 21.0231 16.3849 21.0231 15.9257 21.0231ZM11.6891 18.7105C11.6495 18.6428 11.6096 18.5744 11.569 18.5054V18.5045C11.3272 18.1177 11.1097 17.7054 10.9159 17.3186C10.626 17.9963 10.3841 18.6749 10.1657 19.328C10.8434 19.473 11.5455 19.5944 12.2956 19.6913C12.074 19.3694 11.8855 19.0468 11.6891 18.7105ZM12.2947 12.3078C11.5446 12.4047 10.8425 12.5261 10.1648 12.6711C10.3577 13.3252 10.6006 14.0019 10.9149 14.704C11.1079 14.2927 11.3253 13.905 11.5681 13.4937C11.8014 13.0986 12.0338 12.726 12.2662 12.3535L12.2947 12.3078ZM12.5375 14.0273C12.1497 14.6805 11.8109 15.3346 11.4966 15.9878C11.8109 16.641 12.1497 17.2942 12.5375 17.9483C12.9008 18.5779 13.2876 19.2066 13.7234 19.8363C14.4255 19.8843 15.1521 19.9087 15.9267 19.9087C16.6777 19.9087 17.4034 19.8843 18.13 19.8363L18.1453 19.8128C18.5515 19.191 18.9571 18.5701 19.3159 17.9483C19.7036 17.2951 20.0425 16.641 20.3568 15.9878C20.0425 15.3346 19.7036 14.6805 19.3159 14.0273C18.9526 13.3977 18.5657 12.769 18.13 12.1393C17.4279 12.0913 16.7013 12.0669 15.9267 12.0669C15.1756 12.0669 14.45 12.0913 13.7234 12.1393L13.708 12.1629C13.3018 12.7847 12.8963 13.4055 12.5375 14.0273ZM20.3088 13.4702L20.962 14.6805C21.2519 14.0019 21.4947 13.3252 21.7121 12.6476C21.0345 12.5026 20.3323 12.3812 19.5822 12.2843C19.8039 12.6062 19.9923 12.9288 20.1887 13.265C20.2283 13.3328 20.2682 13.4012 20.3088 13.4702ZM21.7121 19.3045C21.4947 18.6504 21.2528 17.9727 20.962 17.2951V17.296C20.7446 17.7073 20.5272 18.1186 20.3088 18.4819C20.0755 18.877 19.8431 19.2496 19.6107 19.6221L19.5822 19.6678C20.3323 19.5709 21.0345 19.4494 21.7121 19.3045ZM20.8161 25.8645C21.0825 25.8645 21.3243 25.8165 21.5182 25.6951C22.3408 25.2349 22.6081 23.7581 22.2693 21.7007C22.1968 21.265 22.1243 20.8292 22.0029 20.3934C20.9855 20.6353 19.8966 20.8047 18.7587 20.9017C18.081 21.8457 17.4034 22.6937 16.7013 23.4438C18.1535 24.896 19.6302 25.8645 20.8161 25.8645ZM27.1107 15.9878C27.1107 14.8979 25.489 13.712 22.7775 12.9374C22.4876 13.9304 22.0763 14.9469 21.5926 15.9878C22.0763 17.0287 22.4641 18.0452 22.7785 19.0382C23.2142 18.9177 23.649 18.7718 24.0368 18.6269C25.9973 17.8758 27.1107 16.9318 27.1107 15.9878ZM21.5427 6.2805C21.3243 6.15909 21.1069 6.11109 20.8406 6.11109C19.6547 6.11109 18.177 7.10309 16.7248 8.5318C17.4269 9.28286 18.129 10.1299 18.7822 11.0739C19.9201 11.1944 21.01 11.3638 22.0265 11.5822C22.0471 11.4841 22.0678 11.3872 22.0882 11.2913C22.1636 10.9374 22.2358 10.5985 22.2928 10.2749C22.6316 8.19297 22.3417 6.74074 21.5427 6.2805ZM15.9267 10.9525C16.386 10.9525 16.8462 10.9525 17.282 10.977C16.8462 10.4207 16.3869 9.86356 15.9267 9.35533C15.4674 9.86356 15.0072 10.3963 14.5714 10.977C15.0072 10.9525 15.4674 10.9525 15.9267 10.9525ZM11.0363 6.11109C10.77 6.11109 10.5281 6.15909 10.3342 6.2805C9.51163 6.76521 9.24434 8.21744 9.58316 10.2749C9.65563 10.7106 9.7281 11.1464 9.84951 11.5822C10.8669 11.3403 11.9559 11.1709 13.0937 11.0739C13.7714 10.129 14.449 9.28192 15.1512 8.5318C13.6989 7.07956 12.2222 6.11109 11.0363 6.11109ZM9.07526 19.038C6.36409 18.2634 4.74269 17.0776 4.74269 15.9878C4.74269 15.0438 5.8561 14.0998 7.81657 13.3497C8.20434 13.2047 8.63916 13.0589 9.07493 12.9384C9.38928 13.9313 9.77704 14.9478 10.2608 15.9887C9.77723 17.0293 9.36512 18.0698 9.07526 19.038ZM9.78874 20.6842C9.71332 21.0382 9.64113 21.3771 9.5841 21.7007H9.58504C9.24622 23.7581 9.51163 25.2349 10.3352 25.6951C10.5535 25.8165 10.7709 25.8645 11.0373 25.8645C12.2232 25.8645 13.6999 24.8716 15.1521 23.4438C14.45 22.6927 13.7479 21.8457 13.0947 20.9017C11.9568 20.7812 10.8669 20.6118 9.85045 20.3934C9.8298 20.4915 9.80915 20.5884 9.78874 20.6842Z" stroke="black"/>
</svg>
