<svg width="32" height="32" viewBox="0 0 32 32" fill="none" xmlns="http://www.w3.org/2000/svg">
<path d="M15.998 28.895C15.661 28.895 15.325 28.807 15.029 28.636L11.943 26.81C11.483 26.553 11.708 26.461 11.86 26.408C12.474 26.195 12.599 26.146 13.254 25.773C13.323 25.735 13.413 25.749 13.485 25.791L15.855 27.198C15.942 27.246 16.062 27.246 16.142 27.198L25.383 21.865C25.469 21.816 25.524 21.716 25.524 21.615V10.95C25.524 10.846 25.469 10.748 25.381 10.695L16.144 5.36598C16.058 5.31598 15.945 5.31598 15.859 5.36598L6.62405 10.697C6.53405 10.748 6.47805 10.849 6.47805 10.95V21.616C6.47805 21.718 6.53405 21.814 6.62305 21.863L9.15505 23.325C10.529 24.012 11.37 23.203 11.37 22.39V11.86C11.37 11.711 11.49 11.594 11.639 11.594H12.811C12.957 11.594 13.078 11.711 13.078 11.86V22.39C13.078 24.223 12.08 25.275 10.342 25.275C9.80805 25.275 9.38705 25.275 8.21305 24.696L5.79004 23.301C5.19204 22.955 4.82104 22.308 4.82104 21.615V10.95C4.82104 10.257 5.19204 9.61098 5.79004 9.26598L15.032 3.92598C15.617 3.59498 16.394 3.59498 16.974 3.92598L26.215 9.26598C26.814 9.61198 27.186 10.258 27.186 10.95V21.615C27.186 22.308 26.814 22.952 26.215 23.301L16.974 28.636C16.678 28.807 16.343 28.895 16.001 28.895H15.998ZM18.853 21.547C14.808 21.547 13.961 19.69 13.961 18.133C13.961 17.985 14.079 17.867 14.227 17.867H15.422C15.555 17.867 15.667 17.963 15.687 18.093C15.867 19.309 16.404 19.924 18.851 19.924C20.797 19.924 21.626 19.483 21.626 18.451C21.626 17.855 21.392 17.414 18.366 17.117C15.838 16.867 14.273 16.308 14.273 14.286C14.273 12.421 15.845 11.309 18.48 11.309C21.441 11.309 22.905 12.336 23.091 14.542C23.098 14.617 23.071 14.69 23.02 14.747C22.969 14.801 22.899 14.833 22.824 14.833H21.624C21.5 14.833 21.391 14.745 21.365 14.624C21.077 13.344 20.377 12.935 18.479 12.935C16.353 12.935 16.106 13.675 16.106 14.23C16.106 14.903 16.398 15.099 19.267 15.478C22.107 15.853 23.457 16.385 23.457 18.38C23.457 20.394 21.779 21.547 18.851 21.547H18.853Z" fill="black"/>
</svg>
