<svg width="32" height="32" viewBox="0 0 32 32" fill="currentColor" xmlns="http://www.w3.org/2000/svg">
<path d="M13.2491 6.95305C10.4161 7.30405 8.66406 8.13705 8.45506 9.24605C8.41706 9.42605 8.41706 10.4301 8.43606 11.4821C8.47406 13.0551 8.50206 13.4531 8.64406 13.7081C8.79606 14.0021 8.79606 14.0491 8.64406 14.4471C8.50206 14.8161 8.49206 15.1011 8.54006 16.6351C8.57806 17.6011 8.65406 18.5391 8.72006 18.7101C8.80506 18.9471 8.80506 19.0791 8.72006 19.2691C8.57806 19.5721 8.56806 22.2441 8.70106 23.0491C8.75806 23.4281 8.88106 23.7221 9.06106 23.9491C9.90406 25.0011 12.1401 25.6261 15.4271 25.7301C19.5101 25.8631 22.6271 25.0951 23.3661 23.7781C23.5651 23.4371 23.5741 23.2851 23.5741 21.5521C23.5741 20.0841 23.5461 19.6191 23.4231 19.3261C23.3001 19.0131 23.3001 18.9091 23.3951 18.7291C23.4801 18.5681 23.5091 18.0191 23.4901 16.7111C23.4711 14.8351 23.4431 14.5601 23.2341 14.2571C23.1301 14.1051 23.1391 14.0301 23.2531 13.7931C23.3761 13.5661 23.4051 13.1491 23.3951 11.4911C23.3861 10.3161 23.3381 9.34105 23.2721 9.16105C23.0161 8.37505 21.8791 7.65505 20.3351 7.28505C18.4401 6.84005 15.3711 6.69805 13.2491 6.95305ZM13.6851 7.84405C13.6571 7.89105 14.1871 7.90105 14.8981 7.87205C15.9501 7.83405 18.7251 7.99505 18.6311 8.09005C18.6121 8.10905 18.1861 8.16605 17.6741 8.22305C17.1531 8.28005 16.6511 8.37505 16.5371 8.43105C16.3481 8.53505 16.3481 8.54505 16.5091 8.66805C16.6701 8.78205 16.6601 8.79105 16.4141 8.84805C15.6371 9.00905 15.1351 9.20805 14.9551 9.43505C14.5001 10.0131 14.8981 10.5911 15.8741 10.7991C16.6131 10.9511 19.5311 10.8561 20.3361 10.6571C21.2271 10.4301 21.6811 10.1741 21.6811 9.89005C21.6811 9.50205 21.1121 9.21705 19.7391 8.93305C19.0091 8.79105 19.4741 8.76205 20.3831 8.90505C21.2831 9.04705 22.0131 9.32205 22.2491 9.62505C22.4201 9.85205 22.4381 10.0041 22.4381 11.6521C22.4381 13.6891 22.4571 13.6411 21.5291 14.0681C20.1841 14.7031 17.9951 14.9401 14.1961 14.8731C13.4761 14.8541 13.4191 14.8451 13.6181 14.7311C13.8171 14.6171 13.7511 14.5981 12.9551 14.5511C11.8471 14.4851 10.8801 14.2101 10.4261 13.8501C9.87606 13.4141 9.52606 12.6281 9.47906 11.7001C9.43206 10.8191 9.60206 9.80505 9.78206 9.87105C9.84806 9.89905 9.99006 9.73805 10.1231 9.50205C10.5021 8.78205 11.3261 8.28905 12.6811 7.94805C13.4861 7.74905 13.7611 7.72105 13.6851 7.84405ZM10.1231 14.9491C10.1231 15.3371 10.3121 15.4981 11.0511 15.7161C13.7231 16.5211 19.7481 16.4171 21.4721 15.5361C21.8231 15.3561 21.8701 15.2991 21.8701 15.0061C21.8701 14.6461 21.9651 14.5891 22.1921 14.8261C22.3721 15.0061 22.3631 14.8451 22.3431 16.8061L22.3341 18.4171L22.0591 18.6731C21.4721 19.2131 19.4351 19.6391 16.9431 19.7531C13.8551 19.8951 10.3211 19.2891 9.78106 18.5211C9.67706 18.3691 9.64806 17.9621 9.64806 16.6741C9.64806 15.2721 9.66706 14.9971 9.80906 14.8461C10.0271 14.6001 10.1221 14.6381 10.1221 14.9501L10.1231 14.9491ZM10.4071 20.3681C11.2221 20.9651 15.2671 21.3631 18.0051 21.1261C19.5111 20.9931 20.8091 20.7471 21.4341 20.4721C21.8511 20.2831 21.8701 20.2541 21.8701 19.8941C21.8701 19.6291 21.9081 19.5061 22.0031 19.5061C22.3251 19.5061 22.3721 19.7621 22.3531 21.5051C22.3441 22.4521 22.3061 23.2771 22.2871 23.3431C22.2111 23.5321 21.4061 23.9301 20.7331 24.1011C19.5871 24.4041 18.5161 24.5371 16.8011 24.5941C13.6371 24.6981 10.6621 24.215 9.85706 23.4671C9.65806 23.2681 9.64906 23.2021 9.64906 21.5531C9.64906 19.9141 9.65806 19.8381 9.86706 19.6201L10.0751 19.3931L10.1221 19.8001C10.1601 20.0841 10.2371 20.2451 10.4071 20.3681Z" />
</svg>
