<svg width="32" height="32" viewBox="0 0 32 32" fill="none" xmlns="http://www.w3.org/2000/svg">
<path fill-rule="evenodd" clip-rule="evenodd" d="M10.6667 8H21.3334C25.7517 8 29.3334 11.5817 29.3334 16C29.3334 20.4183 25.7517 24 21.3334 24H10.6667C6.24847 24 2.66675 20.4183 2.66675 16C2.66675 11.5817 6.24847 8 10.6667 8ZM5.33341 16C5.33341 18.9455 7.72123 21.3333 10.6667 21.3333C12.0812 21.3333 13.4378 20.7714 14.438 19.7712C15.4382 18.771 16.0001 17.4145 16.0001 16C16.0001 13.0545 13.6123 10.6667 10.6667 10.6667C7.72123 10.6667 5.33341 13.0545 5.33341 16Z" fill="black"/>
</svg>
