<svg width="32" height="32" viewBox="0 0 32 32" fill="none" xmlns="http://www.w3.org/2000/svg">
<path fill-rule="evenodd" clip-rule="evenodd" d="M10.6667 8H21.3334C25.7517 8 29.3334 11.5817 29.3334 16C29.3334 20.4183 25.7517 24 21.3334 24H10.6667C6.24847 24 2.66675 20.4183 2.66675 16C2.66675 11.5817 6.24847 8 10.6667 8ZM16.0001 16C16.0001 18.9455 18.3879 21.3333 21.3334 21.3333C22.7479 21.3333 24.1045 20.7714 25.1047 19.7712C26.1048 18.771 26.6667 17.4145 26.6667 16C26.6667 13.0545 24.2789 10.6667 21.3334 10.6667C18.3879 10.6667 16.0001 13.0545 16.0001 16Z" fill="black"/>
</svg>
